<?xml version="1.0" encoding="iso-8859-1"?>
<!-- Generator: Adobe Illustrator 25.4.1, SVG Export Plug-In . SVG Version: 6.00 Build 0)  -->
<svg version="1.1" baseProfile="basic" id="Layer_1"
	 xmlns="http://www.w3.org/2000/svg" xmlns:xlink="http://www.w3.org/1999/xlink" x="0px" y="0px" viewBox="0 0 100 100"
	 xml:space="preserve">
<path style="fill:none;stroke:#000000;stroke-width:4;stroke-linecap:round;stroke-linejoin:round;stroke-miterlimit:10;" d="M73,15
	c-16,1-34-2-53-2c-5.583,22.334-8.569,50.729-5.733,69.876c0.42,2.375,2.489,4.102,4.9,4.091C38.768,86.937,58.87,87.62,76,84
	C71,81,70,52,73,15z"/>
<path style="fill:none;stroke:#000000;stroke-width:4;stroke-linecap:round;stroke-linejoin:round;stroke-miterlimit:10;" d="M76,84
	c0,0,0.589-0.177,1.481-0.444c5.137-1.541,8.789-6.093,9.179-11.442C87.698,58.265,88.702,44.347,88.5,28
	c-5.912,0.161-11.263-0.157-16-1"/>
<path style="fill:none;stroke:#000000;stroke-width:4;stroke-linecap:round;stroke-linejoin:round;stroke-miterlimit:10;" d="
	M26.959,23.5C37.194,24.388,48.393,25.018,62,25"/>
<path style="fill:none;stroke:#000000;stroke-width:2;stroke-linecap:round;stroke-linejoin:round;stroke-miterlimit:10;" d="M41,33
	l-17-1.5c-1.919,8.508-2.602,15.869-2.5,22.5H40L41,33z"/>
<path style="fill:none;stroke:#000000;stroke-width:2;stroke-linecap:round;stroke-linejoin:round;stroke-miterlimit:10;" d="
	M46.5,35.5c6.492-0.129,12.688-0.596,18.5-1.5"/>
<path style="fill:none;stroke:#000000;stroke-width:2;stroke-linecap:round;stroke-linejoin:round;stroke-miterlimit:10;" d="
	M46.5,48c5.469-0.278,11.359-0.543,18.5-1.5"/>
<path style="fill:none;stroke:#000000;stroke-width:2;stroke-linecap:round;stroke-linejoin:round;stroke-miterlimit:10;" d="
	M21,62.5c14.083-0.219,28.594-0.897,43.5-2"/>
<path style="fill:none;stroke:#000000;stroke-width:2;stroke-linecap:round;stroke-linejoin:round;stroke-miterlimit:10;" d="M21,74
	c12-2,31-2,44-4"/>
<line style="fill:none;stroke:#000000;stroke-width:2;stroke-linecap:round;stroke-linejoin:round;stroke-miterlimit:10;" x1="88.5" y1="31.5" x2="82" y2="34.5"/>
<line style="fill:none;stroke:#000000;stroke-width:2;stroke-linecap:round;stroke-linejoin:round;stroke-miterlimit:10;" x1="88.5" y1="38" x2="82" y2="41.5"/>
<line style="fill:none;stroke:#000000;stroke-width:2;stroke-linecap:round;stroke-linejoin:round;stroke-miterlimit:10;" x1="88.5" y1="44.5" x2="83" y2="47"/>
<line style="fill:none;stroke:#000000;stroke-width:2;stroke-linecap:round;stroke-linejoin:round;stroke-miterlimit:10;" x1="88.5" y1="51" x2="82.5" y2="54.5"/>
<line style="fill:none;stroke:#000000;stroke-width:2;stroke-linecap:round;stroke-linejoin:round;stroke-miterlimit:10;" x1="87.5" y1="58.5" x2="80" y2="61.5"/>
<line style="fill:none;stroke:#000000;stroke-width:2;stroke-linecap:round;stroke-linejoin:round;stroke-miterlimit:10;" x1="87" y1="64.9" x2="82.5" y2="67.6"/>
<line style="fill:none;stroke:#000000;stroke-width:2;stroke-linecap:round;stroke-linejoin:round;stroke-miterlimit:10;" x1="86.893" y1="71.277" x2="82.393" y2="73.977"/>
<line style="fill:none;stroke:#000000;stroke-width:2;stroke-linecap:round;stroke-linejoin:round;stroke-miterlimit:10;" x1="15" y1="84" x2="19" y2="79"/>
<line style="fill:none;stroke:#000000;stroke-width:2;stroke-linecap:round;stroke-linejoin:round;stroke-miterlimit:10;" x1="21" y1="86" x2="24" y2="81.5"/>
<line style="fill:none;stroke:#000000;stroke-width:2;stroke-linecap:round;stroke-linejoin:round;stroke-miterlimit:10;" x1="26.959" y1="86" x2="30" y2="81"/>
<line style="fill:none;stroke:#000000;stroke-width:2;stroke-linecap:round;stroke-linejoin:round;stroke-miterlimit:10;" x1="48.673" y1="87.237" x2="50.922" y2="81.834"/>
<line style="fill:none;stroke:#000000;stroke-width:2;stroke-linecap:round;stroke-linejoin:round;stroke-miterlimit:10;" x1="33" y1="86" x2="35" y2="82"/>
<line style="fill:none;stroke:#000000;stroke-width:2;stroke-linecap:round;stroke-linejoin:round;stroke-miterlimit:10;" x1="54.645" y1="86.322" x2="56.016" y2="82.066"/>
<line style="fill:none;stroke:#000000;stroke-width:2;stroke-linecap:round;stroke-linejoin:round;stroke-miterlimit:10;" x1="38" y1="86" x2="40" y2="83"/>
<line style="fill:none;stroke:#000000;stroke-width:2;stroke-linecap:round;stroke-linejoin:round;stroke-miterlimit:10;" x1="59.587" y1="85.565" x2="60.508" y2="83"/>
<line style="fill:none;stroke:#000000;stroke-width:2;stroke-linecap:round;stroke-linejoin:round;stroke-miterlimit:10;" x1="42.959" y1="86" x2="44.959" y2="83"/>
<line style="fill:none;stroke:#000000;stroke-width:2;stroke-linecap:round;stroke-linejoin:round;stroke-miterlimit:10;" x1="70.215" y1="84.689" x2="68.863" y2="81.346"/>
<line style="fill:none;stroke:#000000;stroke-width:2;stroke-linecap:round;stroke-linejoin:round;stroke-miterlimit:10;" x1="65" y1="85.565" x2="64" y2="79.565"/>
<line style="fill:none;stroke:#000000;stroke-width:2;stroke-linecap:round;stroke-linejoin:round;stroke-miterlimit:10;" x1="34" y1="32.5" x2="32" y2="35"/>
<line style="fill:none;stroke:#000000;stroke-width:2;stroke-linecap:round;stroke-linejoin:round;stroke-miterlimit:10;" x1="38.5" y1="33" x2="36.1" y2="36"/>
<line style="fill:none;stroke:#000000;stroke-width:2;stroke-linecap:round;stroke-linejoin:round;stroke-miterlimit:10;" x1="40.5" y1="36.895" x2="38.088" y2="39"/>
<line style="fill:none;stroke:#000000;stroke-width:2;stroke-linecap:round;stroke-linejoin:round;stroke-miterlimit:10;" x1="40.5" y1="41" x2="38.088" y2="43.105"/>
<path style="fill-rule:evenodd;clip-rule:evenodd;" d="M26.65,40.28c0.474,0.413,0.523,1.134,0.11,1.608
	c-0.413,0.474-1.134,0.523-1.608,0.11c-0.474-0.413-0.523-1.134-0.11-1.608C25.455,39.916,26.176,39.867,26.65,40.28z"/>
<path style="fill-rule:evenodd;clip-rule:evenodd;" d="M33.61,48.326c0.474,0.413,0.523,1.134,0.11,1.608
	c-0.413,0.474-1.134,0.523-1.608,0.11c-0.474-0.413-0.523-1.134-0.11-1.608C32.415,47.962,33.136,47.912,33.61,48.326z"/>
<path style="fill-rule:evenodd;clip-rule:evenodd;" d="M26.309,48.707c0.474,0.413,0.523,1.134,0.11,1.608
	c-0.413,0.474-1.134,0.523-1.608,0.11c-0.474-0.413-0.523-1.134-0.11-1.608C25.115,48.343,25.835,48.293,26.309,48.707z"/>
</svg>